<svg width="56" height="23" viewBox="0 0 56 23" fill="none" xmlns="http://www.w3.org/2000/svg">
<path d="M34.1427 15.8558H32.2947V17.5032H34.118C34.4092 17.5032 34.6601 17.492 34.8595 17.351C35.0521 17.2167 35.1686 16.9615 35.1686 16.6482C35.1686 16.3348 35.0521 16.1065 34.8572 15.9878C34.6758 15.8625 34.407 15.8535 34.1404 15.8535L34.1427 15.8558ZM28.4397 4.71982C28.6324 4.60118 28.7489 4.34153 28.7489 4.02144C28.7489 3.70807 28.6279 3.48199 28.4353 3.37455C28.2561 3.25816 27.9828 3.24025 27.723 3.24025H25.875V4.86979H27.6983C27.9895 4.86979 28.2314 4.86531 28.4397 4.71982ZM40.3966 2.96045L39.3662 5.88378H41.436L40.3966 2.96045Z" fill="white"/>
<path d="M55.2205 16.9169C55.3724 16.7948 55.4943 16.6395 55.5766 16.4629C55.6589 16.2863 55.6996 16.0932 55.6953 15.8984V14.336C55.6953 13.6667 55.2317 13.125 54.6605 13.125H51.6522C50.7159 13.125 50.0148 13.4451 49.5019 13.9331C49.3563 13.463 48.9844 13.125 48.532 13.125H45.5282C44.7017 13.125 44.0476 13.3645 43.5548 13.7563C43.3756 13.3847 43.0486 13.125 42.6588 13.125H37.657C37.2538 13.125 36.9133 13.4004 36.7431 13.7921C36.6714 13.7361 36.6199 13.6667 36.5415 13.613C35.818 13.1609 35.0475 13.125 34.25 13.125H30.7871C30.3816 13.125 30.0412 13.4026 29.8687 13.7966C29.3445 13.3959 28.6076 13.125 27.5571 13.125H22.7658C22.6177 13.1274 22.4721 13.1634 22.3401 13.2306C22.2082 13.2977 22.0933 13.394 22.0042 13.5123L20.8708 14.9448L19.7822 13.5257C19.6941 13.4031 19.5785 13.3028 19.4447 13.2329C19.3109 13.1629 19.1626 13.1252 19.0116 13.1228H12.9794C12.4083 13.1228 11.9446 13.6667 11.9446 14.336V21.6712C11.9446 22.3405 12.4083 22.8844 12.9794 22.8844H18.9198C19.068 22.8816 19.2137 22.8451 19.3456 22.7776C19.4776 22.7102 19.5925 22.6135 19.6814 22.4949L20.8238 21.0467L21.9101 22.4748C21.999 22.5984 22.1156 22.6997 22.2505 22.7704C22.3854 22.8411 22.535 22.8794 22.6874 22.8822H25.5993C26.1728 22.8822 26.6387 22.3405 26.6387 21.6712V20.4199H27.4719C28.4844 20.4199 29.2191 20.1759 29.75 19.8066V21.6712C29.75 22.3382 30.2136 22.8799 30.7871 22.8799H32.2946C32.8657 22.8799 33.3294 22.3405 33.3294 21.6712V20.1983H33.8961C34.0328 20.1983 34.1313 20.205 34.2008 20.2095C34.2075 20.3394 34.2075 20.5005 34.2052 20.6035V21.669C34.2052 22.336 34.6667 22.8777 35.2423 22.8777H36.7453C36.9069 22.8746 37.0648 22.8282 37.2023 22.7434C37.3389 22.8262 37.4935 22.8777 37.6592 22.8777H42.6633C42.8268 22.8777 42.9769 22.8262 43.1113 22.7478C43.2477 22.8311 43.4039 22.8767 43.5638 22.8799H46.4824C47.4142 22.8799 48.1691 22.6135 48.738 22.1412C48.8948 22.5755 49.2622 22.8799 49.69 22.8799H52.6176C54.7366 22.8799 56 21.5593 56 19.3567C56 18.3315 55.767 17.5682 55.2518 16.9504L55.2205 16.9146V16.9169ZM27.4719 19.2134H25.6016V21.6734H22.6896L20.8394 19.2448L18.9198 21.6734H12.9794V14.3382H19.0116L20.8574 16.74L22.7658 14.3382H27.5638C28.7509 14.3382 30.0837 14.7277 30.0837 16.7557C30.0837 18.7926 28.7845 19.2134 27.4719 19.2134ZM36.4989 18.8799C36.7117 19.2381 36.7409 19.5716 36.7453 20.2185V21.6734H35.2423V20.7557C35.2423 20.3147 35.2782 19.6589 35.0004 19.3186C34.7787 19.0568 34.4471 18.9941 33.8984 18.9941H32.2968V21.6712H30.7915V14.336H34.2545C35.0116 14.336 35.5649 14.3741 36.0599 14.6807C36.5303 15.0165 36.8282 15.4731 36.8282 16.3103C36.8282 17.4854 36.1562 18.0808 35.7642 18.2644C36.0636 18.3931 36.3184 18.6072 36.4967 18.8799H36.4989ZM42.6633 15.8536H39.151V17.1877H42.5782V18.6852H39.151V20.1424L42.6633 20.1513V21.6734H37.6592V14.3338H42.6633V15.8514V15.8536ZM46.4869 21.669H43.5682V20.0954H46.4779C46.7602 20.0954 46.9618 20.0528 47.0894 19.9163C47.2054 19.784 47.2677 19.6131 47.2642 19.4373C47.2676 19.3483 47.2534 19.2596 47.2222 19.1762C47.1911 19.0928 47.1437 19.0165 47.0827 18.9516C46.9685 18.8396 46.8117 18.7882 46.5474 18.7882C45.1474 18.7344 43.389 18.8396 43.389 16.5207C43.389 15.453 43.9602 14.336 45.5349 14.336H48.5387V15.8962H45.7858C45.5125 15.8962 45.3356 15.9096 45.1855 16.0305C45.0197 16.1491 44.9592 16.3259 44.9592 16.5587C44.9592 16.8363 45.0981 17.0221 45.2863 17.1049C45.4737 17.1709 45.6725 17.1991 45.8709 17.1877L46.6773 17.2146C47.4904 17.2369 48.0481 17.4004 48.3931 17.801C48.6843 18.1525 48.8433 18.6001 48.8433 19.3545C48.8433 20.9325 47.9989 21.669 46.4869 21.669V21.669ZM52.6154 21.669H49.6945V20.0954H52.602C52.8864 20.0954 53.088 20.0528 53.2157 19.9163C53.3308 19.7834 53.3929 19.613 53.3904 19.4373C53.3962 19.2578 53.331 19.0833 53.209 18.9516C53.0903 18.8396 52.9357 18.7882 52.6736 18.7882C51.2714 18.7344 49.5153 18.8396 49.5153 16.5207C49.5153 15.453 50.0865 14.336 51.6589 14.336H54.665V15.8962H51.9143C51.641 15.8962 51.4618 15.9096 51.3118 16.0305C51.146 16.1491 51.0878 16.3259 51.0878 16.5587C51.0878 16.8363 51.2266 17.0221 51.4125 17.1049C51.5994 17.1703 51.7973 17.1984 51.9949 17.1877L52.8036 17.2146C53.6167 17.2369 54.1767 17.4004 54.5194 17.801C54.815 18.1525 54.9696 18.6001 54.9696 19.3545C54.9696 20.9325 54.1274 21.669 52.6154 21.669V21.669Z" fill="white"/>
<path d="M27.5576 15.8558H25.6021V17.7226H27.5419C28.1176 17.7226 28.4738 17.3868 28.4738 16.7556C28.4738 16.1132 28.0997 15.8535 27.5554 15.8535L27.5576 15.8558ZM24.1081 21.0063V15.1238L21.8054 18.0158L24.1081 21.0063ZM3.78052 5.88378H5.82559L4.80194 2.96045L3.78052 5.88378ZM14.4785 15.8558V17.1899H17.769V18.6873H14.4763V20.1468H18.1633L19.8768 17.9912L18.2372 15.8558H14.4785Z" fill="white"/>
<path d="M13.4925 10.2601C13.9024 10.2601 14.272 9.97809 14.4377 9.53937L14.6393 9.02006V9.04916C14.6393 9.71844 15.1008 10.2579 15.672 10.2579H17.2108C17.4164 10.2494 17.6133 10.1731 17.7708 10.0408C17.9274 10.1731 18.1237 10.2494 18.3285 10.2579H23.3371C23.5247 10.2514 23.7056 10.1864 23.8545 10.0721C24.0113 10.1795 24.1815 10.2579 24.3764 10.2579H25.8772C26.4484 10.2579 26.912 9.7162 26.912 9.04916V7.59197H27.4855C27.6154 7.59197 27.7072 7.59421 27.7767 7.60093C27.7834 7.72404 27.7811 7.87177 27.7811 7.97026L27.7789 8.13142L27.7834 9.05811C27.7879 9.72291 28.2515 10.2579 28.8205 10.2579H30.3347C30.4998 10.2535 30.6604 10.2031 30.7984 10.1124C30.9388 10.2031 31.1016 10.2534 31.2688 10.2579H32.7986C33.3004 10.2579 33.6991 9.83483 33.7954 9.28419C34.6466 10.1191 35.8427 10.2579 36.5102 10.2579H38.2664C38.6852 10.2579 39.066 9.95794 39.2228 9.50131L39.5275 8.62163H41.2567L41.5725 9.51251C41.7361 9.96466 42.1124 10.2579 42.529 10.2579H45.5821C46.1532 10.2579 46.6192 9.7162 46.6192 9.04692V7.88744L47.5375 9.67143C47.6174 9.84112 47.7428 9.98536 47.8998 10.0881C48.0568 10.1908 48.2392 10.2481 48.4268 10.2534H50.5503C51.1215 10.2534 51.5874 9.71396 51.5874 9.04468V1.7095C51.5874 1.04022 51.1237 0.498535 50.5503 0.498535H49.0181C48.4447 0.498535 47.9788 1.04022 47.9788 1.7095V2.46608L47.2665 1.08499C47.1873 0.915056 47.0624 0.770445 46.9058 0.667287C46.7492 0.564128 46.567 0.506481 46.3795 0.500774H44.0947C43.5235 0.500774 43.0599 1.04246 43.0599 1.7095V2.73916L42.5088 1.23273C42.3431 0.789525 41.9712 0.500774 41.5569 0.500774H39.3124C39.084 0.502579 38.8641 0.587761 38.6942 0.740282C38.5244 0.587581 38.3044 0.502372 38.076 0.500774H36.6245C35.3925 0.500774 34.4808 0.849962 33.8089 1.53043C33.7327 0.95069 33.3228 0.500774 32.8031 0.500774H31.2732C30.8656 0.500774 30.5184 0.782811 30.3504 1.18124C30.2877 1.12752 30.2361 1.06261 30.1645 1.01336C29.4589 0.536589 28.7219 0.498535 27.8282 0.498535H24.3787C24.1909 0.506278 24.0101 0.571965 23.8612 0.686561C23.7117 0.571801 23.53 0.506818 23.3416 0.500774H18.333C18.1273 0.508205 17.93 0.584693 17.773 0.717898C17.6159 0.584996 17.4188 0.50855 17.2131 0.500774H14.7155C14.3011 0.500774 13.9248 0.791764 13.7635 1.23944L12.872 3.69271L11.8909 1.20363C11.7207 0.776096 11.3533 0.500774 10.9501 0.500774H8.49963C7.92621 0.500774 7.46254 1.04246 7.46254 1.7095V2.76378L6.90255 1.23049C6.73455 0.791765 6.36272 0.500774 5.94609 0.500774H3.71957C3.30518 0.500774 2.92887 0.791764 2.76759 1.23496L0.0841316 8.57015C0.0165417 8.75559 -0.0108232 8.95327 0.00385157 9.15008C0.0185263 9.34689 0.0749056 9.53834 0.16925 9.71172C0.251498 9.87157 0.375048 10.0065 0.527082 10.1025C0.679117 10.1986 0.854098 10.2522 1.03387 10.2579H2.66456C3.08119 10.2579 3.45974 9.96242 3.61878 9.51251L3.93461 8.61939H5.67281L5.98641 9.50579C6.1432 9.96018 6.524 10.2556 6.94287 10.2556H9.99368C10.5649 10.2556 11.0285 9.71396 11.0285 9.04692V9.01782L11.2257 9.53713C11.3914 9.97809 11.7632 10.2601 12.1709 10.2601H13.4903H13.4925ZM34.3397 2.56904C34.8236 1.98258 35.5829 1.71398 36.6178 1.71398H38.0693V3.28532H36.6469C36.0981 3.28532 35.789 3.38157 35.4933 3.71957C35.2357 4.02847 35.0632 4.61268 35.0632 5.38269C35.0632 6.16612 35.1932 6.73467 35.4754 7.104C35.7061 7.39499 36.1295 7.48229 36.5214 7.48229H37.1934L39.3102 1.71398H41.5569L44.097 8.65297V1.71398H46.3795L49.0181 6.82421V1.71398H50.5503V9.04916H48.4268L45.5821 3.54274V9.04916H42.529L41.9466 7.41514H38.8308L38.2664 9.04916H36.5125C35.7823 9.04916 34.8594 8.8589 34.3397 8.23663C33.8111 7.61436 33.5333 6.77049 33.5333 5.43865C33.5333 4.34856 33.6991 3.35471 34.342 2.56904H34.3397ZM37.1621 4.49629L36.5125 6.27133C36.4136 6.2744 36.3147 6.26309 36.2191 6.23775C36.1675 6.12583 36.1003 5.88632 36.1003 5.38269C36.1003 4.87457 36.2056 4.61045 36.2191 4.58806C36.2616 4.54106 36.2974 4.49853 36.6357 4.49853H37.1621V4.49629ZM31.2688 1.71398H32.7986V9.04916H31.2688V1.71398V1.71398ZM24.3764 1.71398H27.8259C28.5898 1.71398 29.1542 1.73636 29.6403 2.06317C30.1129 2.39221 30.3997 2.86898 30.3997 3.68823C30.3997 4.85667 29.7321 5.46327 29.3424 5.64458C29.6717 5.79007 29.9517 6.04749 30.0838 6.26237C30.2966 6.62723 30.3347 6.95179 30.3347 7.6054V9.04916H28.8205L28.8138 8.12247C28.8138 7.68151 28.8496 7.04805 28.5786 6.69438C28.3591 6.43697 28.0253 6.38101 27.4855 6.38101H25.8772V9.04916H24.3764V1.71398V1.71398ZM18.3285 1.71398H23.3348V3.24056H19.8248V4.5612H23.252V6.0654H19.8248V7.53154H23.3348V9.04916H18.3263V1.71398H18.3285ZM9.99592 3.29875V9.0514H6.94511L6.3672 7.4129H3.24919L2.6668 9.04916H1.03835L3.72406 1.71398H5.95057L8.50187 8.65968V1.71398H10.9501L12.9123 6.68991L14.7133 1.71398H17.2131V9.04916H15.6764L15.6697 3.30547L13.497 9.04916H12.1754L9.99816 3.29875H9.99592Z" fill="white"/>
</svg>
