<svg width="54" height="21" viewBox="0 0 54 21" fill="none" xmlns="http://www.w3.org/2000/svg">
<path d="M8.41724 5.10829C9.02523 4.91239 9.67375 4.80791 10.3466 4.80791C13.2919 4.80791 15.7509 6.8296 16.313 9.51735L20.4878 8.69457C19.5312 4.1288 15.3537 0.691406 10.3466 0.691406C9.19817 0.691406 8.09839 0.871634 7.06616 1.20597L8.41724 5.10829Z" fill="white"/>
<path d="M3.4912 18.1842L6.31496 15.0995C5.05575 14.0207 4.26131 12.4457 4.26131 10.6904C4.26131 8.93778 5.05575 7.36274 6.31496 6.2866L3.4912 3.19922C1.35108 5.03284 0 7.71014 0 10.6904C0 13.6733 1.35108 16.3506 3.4912 18.1842" fill="white"/>
<path d="M16.313 11.8706C15.7482 14.5557 13.2919 16.5748 10.3493 16.5748C9.67375 16.5748 9.02253 16.4703 8.41724 16.2718L7.06616 20.1794C8.09839 20.5111 9.20087 20.6913 10.3493 20.6913C15.351 20.6913 19.5258 17.2592 20.4878 12.6986L16.313 11.8706Z" fill="white"/>
<path d="M24.1385 15.2273C24.0006 15.0131 23.8169 14.6709 23.7034 14.4175C23.0414 12.9339 23.0117 11.3981 23.5683 9.92491C24.1817 8.30808 25.3544 7.07261 26.8703 6.44051C28.7754 5.64907 30.8804 5.80318 32.707 6.85059C33.8662 7.49314 34.6877 8.4857 35.3119 9.89095C35.3903 10.0712 35.4605 10.2619 35.5308 10.4264L24.1385 15.2273ZM27.9431 8.82526C26.5893 9.38684 25.8922 10.6145 26.0381 12.0511L31.7667 9.66632C30.7804 8.54839 29.4996 8.17748 27.9431 8.82526V8.82526ZM32.48 14.0127C32.4773 14.0127 32.4773 14.0153 32.4773 14.0153L32.3584 13.9369C32.0153 14.4724 31.4829 14.9086 30.8101 15.1907C29.5293 15.7288 28.343 15.5903 27.4891 14.8668L27.4108 14.9817C27.4108 14.9817 27.4108 14.9791 27.4081 14.9791L25.9543 17.0818C26.3164 17.3247 26.7028 17.5284 27.1081 17.693C28.7132 18.3382 30.3561 18.3068 31.9747 17.6277C33.1448 17.1366 34.0635 16.3896 34.6904 15.4414L32.48 14.0127ZM39.5111 3.3479V15.034L41.3918 15.7706L40.3244 18.1788L38.2492 17.343C37.7844 17.1471 37.4655 16.8493 37.2277 16.5124C36.9981 16.1702 36.8278 15.6974 36.8278 15.0653V3.3479H39.5111ZM44.3804 12.0589C44.3804 11.0637 44.837 10.1704 45.5558 9.56445L43.6265 7.4853C42.3186 8.60324 41.4945 10.2357 41.4945 12.0537C41.4918 13.8742 42.3159 15.5094 43.6211 16.6273L45.5477 14.5481C44.8316 13.9395 44.3804 13.0515 44.3804 12.0589V12.0589ZM47.8067 15.3735C47.4284 15.3735 47.0609 15.3108 46.7204 15.2011L45.799 17.8471C46.4286 18.0508 47.1015 18.1632 47.804 18.1632C50.8575 18.1658 53.4056 16.0709 53.9974 13.2892L51.1655 12.7302C50.8439 14.2425 49.4631 15.3761 47.8067 15.3735V15.3735ZM47.8148 5.95467C47.115 5.95467 46.4421 6.06438 45.8125 6.2655L46.7258 8.91407C47.069 8.80436 47.4338 8.74429 47.8121 8.74429C49.4712 8.7469 50.8548 9.88573 51.1682 11.4007L54.0001 10.8469C53.4191 8.05994 50.871 5.95729 47.8148 5.95467V5.95467Z" fill="white"/>
</svg>
