<svg width="50" height="23" viewBox="0 0 50 23" fill="none" xmlns="http://www.w3.org/2000/svg">
<g clip-path="url(#clip0_4603_337)">
<path d="M8.55955 1.19141H13.7284H49.3848C48.5853 5.17384 47.7996 9.07555 47.0169 12.9624C46.8352 13.8648 46.6536 14.7665 46.4721 15.6682M46.4721 15.6682C46.4721 15.6682 46.4721 15.6682 46.4721 15.6682L46.9623 15.7669L46.4721 15.6682Z" stroke="white"/>
<path d="M13.3239 8.51034C13.5406 8.35943 13.8196 7.67218 13.5008 7.38605C13.3998 7.29547 13.231 7.26918 12.9953 7.30946C12.7768 7.34676 12.6511 7.42187 12.5657 7.53943C12.4285 7.72844 12.3026 8.29862 12.5152 8.51044C12.7222 8.7166 13.186 8.60628 13.3239 8.51034V8.51034ZM10.2406 7.38605C10.0854 8.40448 9.91049 9.40306 9.73513 10.4011C8.60928 10.4132 7.45977 10.4573 6.37385 10.3756C6.57894 9.39909 6.72604 8.3639 6.92986 7.38605H5.71676C5.28253 9.8769 4.88745 12.4075 4.40259 14.8472H5.641C5.8352 13.5958 6.01694 12.3315 6.27277 11.1422C7.32866 11.1159 8.59416 11.07 9.60884 11.1678C9.39962 12.4043 9.14684 13.5964 8.95175 14.8472H10.1902C10.5882 12.3195 11.0073 9.81351 11.5044 7.38605H10.2406V7.38605ZM27.7548 9.53244C26.7912 9.13895 26.0336 9.80388 25.6824 10.4267C25.7621 10.1496 25.7949 9.82512 25.8595 9.53244H24.8991C24.6642 11.3733 24.3182 13.1016 23.9893 14.8472H25.0761C25.2284 13.8111 25.2941 12.4144 25.632 11.4232C25.902 10.6312 26.6088 9.95647 27.6286 10.3246C27.6427 10.0324 27.7254 9.80934 27.7548 9.53244V9.53244ZM28.3612 13.5952C28.261 13.3335 28.2352 12.9015 28.2602 12.573C28.3164 11.8348 28.5825 10.9359 28.9932 10.5289C29.5599 9.96729 30.6787 10.0603 31.5711 10.3757C31.5987 10.0716 31.6591 9.80031 31.6975 9.50694C30.234 9.26525 28.8452 9.41566 28.1088 10.1969C27.3879 10.9616 26.9154 12.7193 27.2494 13.8252C27.6403 15.1193 29.3936 15.1897 30.8129 14.694C30.8757 14.4339 30.909 14.1439 30.9645 13.8764C30.1888 14.2837 28.706 14.4954 28.3612 13.5952V13.5952ZM40.5681 9.55793C39.6076 9.07238 38.808 9.88712 38.4958 10.3756C38.5847 10.1249 38.5898 9.7893 38.6726 9.53234H37.7123C37.4534 11.3573 37.1413 13.1284 36.7773 14.8471H37.8894C37.8963 14.1427 38.0332 13.6216 38.142 12.9309C38.3743 11.4558 38.7156 9.83821 40.4167 10.3245C40.473 10.075 40.4964 9.79208 40.5681 9.55793ZM12.2119 9.53244C12.1824 9.5367 12.1844 9.57282 12.1865 9.60903C11.9471 11.4196 11.623 13.1447 11.2768 14.8471H12.3635C12.6246 13.0244 12.9237 11.2402 13.2986 9.53234L12.2119 9.53244V9.53244ZM21.765 9.43025C20.9798 9.49146 20.316 9.71985 19.8443 10.2224C19.2657 10.8386 18.7973 12.2011 18.9345 13.4419C19.1304 15.2121 21.3104 15.1485 23.054 14.7195C23.0837 14.4088 23.1581 14.1432 23.2056 13.8507C22.4874 14.1224 21.2402 14.5017 20.5013 14.0297C19.9435 13.673 19.9403 12.7703 20.1222 11.9855C21.2941 11.9478 22.5121 11.9549 23.6857 11.9855C23.76 11.4293 23.9731 10.8229 23.7867 10.2736C23.541 9.54831 22.6608 9.3604 21.765 9.43025ZM22.8012 11.3722H20.2485C20.3294 10.7789 20.8573 10.1267 21.6892 10.0946C22.4721 10.0643 23.0326 10.3852 22.8012 11.3722V11.3722ZM17.6456 9.53244C16.7258 9.1831 15.6049 9.6001 15.1188 9.99675C15.1206 10.0142 15.1072 10.0166 15.0929 10.0179C15.1011 10.0108 15.1102 10.0038 15.1188 9.99675C15.1187 9.99529 15.1186 9.99383 15.1183 9.99239C15.1265 9.82184 15.1858 9.70298 15.1941 9.53244H14.259C13.8693 12.1536 13.4072 14.7014 12.9196 17.2235H14.0063C14.1636 16.2413 14.2674 15.205 14.4865 14.2851C14.7347 15.2526 16.3553 15.0678 17.0391 14.6939C18.45 13.9224 19.5382 10.2511 17.6456 9.53244V9.53244ZM16.7864 13.8507C16.2049 14.4733 14.7755 14.4639 14.6634 13.4162C14.6146 12.9605 14.7825 12.4825 14.8657 12.011C14.9496 11.5337 15.0102 11.0757 15.093 10.6567C15.6657 9.94973 17.3485 9.8643 17.5193 11.04C17.6674 12.0607 17.2678 13.3351 16.7864 13.8507V13.8507ZM44.6117 7.23277C44.5186 8.05842 44.3941 8.85243 44.2328 9.60903C41.567 8.75589 39.9323 10.7389 39.9617 13.1864C39.9675 13.6597 40.0481 14.1291 40.3407 14.4639C40.8455 15.0408 42.2902 15.179 43.0198 14.6938C43.1609 14.6 43.3052 14.4291 43.3987 14.3107C43.4691 14.2215 43.5807 13.9878 43.601 14.0551C43.5625 14.3143 43.5052 14.5546 43.5 14.8471H44.4856C44.6757 12.0921 45.2629 9.7391 45.6987 7.23267H44.6118V7.23277H44.6117ZM42.1856 14.2595C41.4541 14.2753 41.0903 13.8176 41.0735 13.0586C41.0444 11.7293 41.6211 10.2525 42.7922 10.1201C43.3374 10.0585 43.7322 10.1866 44.1317 10.3246C43.7649 11.8177 43.8972 14.2224 42.1856 14.2595V14.2595ZM32.8093 9.53244C32.7558 9.83603 32.6737 10.1108 32.6072 10.4011C33.2484 10.2385 35.2453 9.74009 35.4378 10.6055C35.5016 10.893 35.3914 11.1985 35.3114 11.4232C33.5057 11.2503 32.034 11.5536 31.6467 12.8541C31.3875 13.7252 31.6758 14.5824 32.2281 14.8217C33.2917 15.2825 34.5855 14.7546 35.0334 14.0297C34.9868 14.2806 34.9428 14.5343 34.9577 14.8472H35.8927C35.9027 13.9418 36.033 13.2089 36.1707 12.3941C36.2881 11.7003 36.509 11.0135 36.474 10.4011C36.3936 8.99877 34.0956 9.49483 32.8093 9.53244V9.53244ZM34.5784 13.8251C34.0184 14.3794 32.4463 14.5369 32.6072 13.2119C32.7406 12.1114 33.9258 11.8775 35.2101 12.0364C35.1147 12.6384 35.0052 13.4028 34.5784 13.8251V13.8251Z" fill="white"/>
</g>
<defs>
<clipPath id="clip0_4603_337">
<rect width="50" height="22" fill="white" transform="translate(0 0.691406)"/>
</clipPath>
</defs>
</svg>
